<?xml version="1.0" encoding="UTF-8"?>
<!DOCTYPE svg PUBLIC "-//W3C//DTD SVG 1.1//EN" "http://www.w3.org/Graphics/SVG/1.1/DTD/svg11.dtd">
<!-- Creator: CorelDRAW 2018 (64 Bit Versión de evaluación) -->
<svg xmlns="http://www.w3.org/2000/svg" xml:space="preserve" width="98.0762mm" height="69.6659mm" version="1.1" style="shape-rendering:geometricPrecision; text-rendering:geometricPrecision; image-rendering:optimizeQuality; fill-rule:evenodd; clip-rule:evenodd"
viewBox="0 0 106.9651 75.9799"
 xmlns:xlink="http://www.w3.org/1999/xlink">
 <defs>
  <style type="text/css">
   <![CDATA[
    .str0 {stroke:black;stroke-width:0.0831;stroke-linecap:round;stroke-linejoin:round;stroke-miterlimit:22.9256}
    .fil0 {fill:none}
   ]]>
  </style>
 </defs>
 <g id="_0">
  <metadata id="CorelCorpID_0Corel-Layer"/>
  <path class="fil0 str0" d="M81.0213 23.3595c0.499,-0.3374 0.6299,-1.0155 0.2925,-1.5145"/>
  <line class="fil0 str0" x1="81.0213" y1="23.3595" x2="79.6661" y2= "24.2758" />
  <path class="fil0 str0" d="M79.6661 24.2758c-0.2396,0.1621 -0.4051,0.4126 -0.4599,0.6966 -0.0549,0.284 0.0053,0.5783 0.1674,0.8179"/>
  <line class="fil0 str0" x1="79.3736" y1="25.7903" x2="86.0939" y2= "35.7284" />
  <path class="fil0 str0" d="M86.0939 35.7284c0.162,0.2396 0.4126,0.4051 0.6966,0.4599 0.284,0.0549 0.5781,-0.0053 0.8178,-0.1674"/>
  <line class="fil0 str0" x1="87.6082" y1="36.0209" x2="88.9634" y2= "35.1045" />
  <path class="fil0 str0" d="M90.4778 35.397c-0.162,-0.2396 -0.4126,-0.4051 -0.6966,-0.4599 -0.284,-0.0549 -0.5781,0.0053 -0.8178,0.1674"/>
  <path class="fil0 str0" d="M106.9235 60.7198c0,-0.6533 -0.1956,-1.2915 -0.5616,-1.8327"/>
  <line class="fil0 str0" x1="106.9235" y1="67.2133" x2="106.9235" y2= "60.7198" />
  <path class="fil0 str0" d="M98.1985 75.9383c4.8186,0 8.7251,-3.9063 8.7251,-8.7249"/>
  <path class="fil0 str0" d="M51.3839 72.4751c-0.0527,0.8994 0.2679,1.7808 0.886,2.4363 0.6183,0.6555 1.4793,1.0269 2.3803,1.0269"/>
  <path class="fil0 str0" d="M51.3839 72.4751c0.334,-5.6991 -2.5169,-11.1141 -7.4043,-14.0645 -4.8875,-2.9504 -11.007,-2.9504 -15.8944,0 -4.8875,2.9503 -7.7383,8.3653 -7.4044,14.0644"/>
  <path class="fil0 str0" d="M17.4145 75.9383c0.901,0 1.7621,-0.3715 2.3803,-1.0269 0.6182,-0.6555 0.9387,-1.5368 0.886,-2.4363"/>
  <path class="fil0 str0" d="M0.0416 67.2133c0,2.3141 0.9192,4.5333 2.5555,6.1696 1.6363,1.6363 3.8555,2.5555 6.1696,2.5555"/>
  <line class="fil0 str0" x1="0.0416" y1="60.7198" x2="0.0416" y2= "67.2133" />
  <path class="fil0 str0" d="M0.603 58.8871c-0.3659,0.5412 -0.5615,1.1794 -0.5615,1.8327"/>
  <path class="fil0 str0" d="M43.8694 0.0416c-2.1726,0 -4.2036,1.0784 -5.4208,2.8782"/>
  <path class="fil0 str0" d="M68.5164 2.9197c-1.217,-1.7998 -3.248,-2.8782 -5.4208,-2.8782"/>
  <path class="fil0 str0" d="M19.2639 71.5758c0,-1.28 -1.0376,-2.3176 -2.3176,-2.3176 -1.28,0 -2.3176,1.0376 -2.3176,2.3176 0,1.28 1.0376,2.3176 2.3176,2.3176 1.28,0 2.3176,-1.0376 2.3176,-2.3176z"/>
  <path class="fil0 str0" d="M57.4361 71.5758c0,-1.28 -1.0376,-2.3176 -2.3176,-2.3176 -1.28,0 -2.3176,1.0376 -2.3176,2.3176 0,1.28 1.0376,2.3176 2.3176,2.3176 1.28,0 2.3176,-1.0376 2.3176,-2.3176z"/>
  <path class="fil0 str0" d="M49.7832 52.1667c-1.622,-1.543 -3.7749,-2.4035 -6.0136,-2.4035"/>
  <line class="fil0 str0" x1="53.9021" y1="56.0848" x2="49.7832" y2= "52.1667" />
  <path class="fil0 str0" d="M53.9021 56.0848c1.622,1.5429 3.7749,2.4034 6.0136,2.4034"/>
  <line class="fil0 str0" x1="79.2588" y1="58.4882" x2="59.9157" y2= "58.4882" />
  <path class="fil0 str0" d="M79.2588 58.4882c3.2281,0 6.1923,-1.7823 7.7062,-4.6333 1.5138,-2.8511 1.3297,-6.3051 -0.4785,-8.9791"/>
  <line class="fil0 str0" x1="85.7842" y1="43.8372" x2="86.4865" y2= "44.8757" />
  <path class="fil0 str0" d="M85.7842 43.8372c-0.2183,-0.3228 -0.5922,-0.5046 -0.9809,-0.4769"/>
  <path class="fil0 str0" d="M81.8609 41.9294c0.6548,0.9684 1.7765,1.5138 2.9424,1.4309"/>
  <line class="fil0 str0" x1="72.6531" y1="28.3126" x2="81.8609" y2= "41.9294" />
  <path class="fil0 str0" d="M72.421 25.0489c-0.5112,1.0513 -0.4227,2.2953 0.2321,3.2637"/>
  <path class="fil0 str0" d="M72.421 25.0489c0.1705,-0.3504 0.1409,-0.7651 -0.0773,-1.0878"/>
  <line class="fil0 str0" x1="64.0154" y1="11.6448" x2="72.3437" y2= "23.9611" />
  <path class="fil0 str0" d="M64.0154 11.6448c-1.2171,-1.7998 -3.2481,-2.8782 -5.4209,-2.8782"/>
  <line class="fil0 str0" x1="48.3704" y1="8.7666" x2="58.5945" y2= "8.7666" />
  <path class="fil0 str0" d="M48.3704 8.7666c-2.1726,0 -4.2037,1.0784 -5.4208,2.8782"/>
  <line class="fil0 str0" x1="14.1502" y1="54.2343" x2="42.9496" y2= "11.6448" />
  <path class="fil0 str0" d="M14.1502 54.2343c-0.5631,0.8328 -0.6223,1.9078 -0.1541,2.7974 0.4683,0.8895 1.3879,1.4493 2.3932,1.4565"/>
  <path class="fil0 str0" d="M16.3893 58.4882c0.8984,-0.0064 1.736,-0.455 2.2392,-1.1993"/>
  <line class="fil0 str0" x1="21.1224" y1="53.6008" x2="18.6284" y2= "57.289" />
  <path class="fil0 str0" d="M28.3501 49.7632c-2.8969,0 -5.605,1.4379 -7.2277,3.8376"/>
  <line class="fil0 str0" x1="43.7696" y1="49.7632" x2="28.3501" y2= "49.7632" />
  <line class="fil0 str0" x1="88.9281" y1="68.7947" x2="88.9281" y2= "65.3047" />
  <line class="fil0 str0" x1="88.9281" y1="65.3047" x2="66.8973" y2= "65.3047" />
  <line class="fil0 str0" x1="66.8973" y1="65.3047" x2="66.8973" y2= "68.7947" />
  <line class="fil0 str0" x1="66.8973" y1="68.7947" x2="88.9281" y2= "68.7947" />
  <line class="fil0 str0" x1="67.9799" y1="11.8614" x2="70.3741" y2= "10.2425" />
  <line class="fil0 str0" x1="70.3741" y1="10.2425" x2="66.3114" y2= "4.2344" />
  <line class="fil0 str0" x1="66.3114" y1="4.2344" x2="63.9173" y2= "5.8534" />
  <line class="fil0 str0" x1="63.9173" y1="5.8534" x2="67.9799" y2= "11.8614" />
  <line class="fil0 str0" x1="63.0956" y1="0.0416" x2="43.8694" y2= "0.0416" />
  <line class="fil0 str0" x1="81.3138" y1="21.845" x2="68.5164" y2= "2.9197" />
  <line class="fil0 str0" x1="54.6503" y1="75.9383" x2="98.1985" y2= "75.9383" />
  <line class="fil0 str0" x1="38.4486" y1="2.9197" x2="0.603" y2= "58.8871" />
  <line class="fil0 str0" x1="8.7666" y1="75.9383" x2="17.4145" y2= "75.9383" />
  <line class="fil0 str0" x1="106.362" y1="58.8871" x2="90.4778" y2= "35.397" />
 </g>
</svg>
