<?xml version="1.0" encoding="UTF-8"?>
<!DOCTYPE svg PUBLIC "-//W3C//DTD SVG 1.1//EN" "http://www.w3.org/Graphics/SVG/1.1/DTD/svg11.dtd">
<!-- Creator: CorelDRAW 2018 (64 Bit Versión de evaluación) -->
<svg xmlns="http://www.w3.org/2000/svg" xml:space="preserve" width="102.076mm" height="230.287mm" version="1.1" style="shape-rendering:geometricPrecision; text-rendering:geometricPrecision; image-rendering:optimizeQuality; fill-rule:evenodd; clip-rule:evenodd"
viewBox="0 0 106.2814 239.7737"
 xmlns:xlink="http://www.w3.org/1999/xlink">
 <defs>
  <style type="text/css">
   <![CDATA[
    .str0 {stroke:black;stroke-width:0.0793;stroke-linecap:round;stroke-linejoin:round;stroke-miterlimit:22.9256}
    .fil0 {fill:none}
   ]]>
  </style>
 </defs>
 <g id="Capa_x0020_1">
  <metadata id="CorelCorpID_0Corel-Layer"/>
  <g id="_1450843970576">
   <path class="fil0 str0" d="M14.6164 80.8312c-1.6569,0 -3.2458,0.6582 -4.4175,1.8298 -1.1716,1.1716 -1.8297,2.7605 -1.8297,4.4174"/>
   <line class="fil0 str0" x1="14.6164" y1="80.8312" x2="23.9872" y2= "80.8312" />
   <line class="fil0 str0" x1="23.9872" y1="80.8312" x2="23.9872" y2= "77.7076" />
   <line class="fil0 str0" x1="23.9872" y1="77.7076" x2="44.8111" y2= "77.7076" />
   <line class="fil0 str0" x1="44.8111" y1="77.7076" x2="44.8111" y2= "80.8312" />
   <line class="fil0 str0" x1="59.7002" y1="80.8312" x2="59.7002" y2= "99.0521" />
   <line class="fil0 str0" x1="65.6351" y1="106.3405" x2="65.6351" y2= "99.0521" />
   <line class="fil0 str0" x1="82.2942" y1="106.3405" x2="65.6351" y2= "106.3405" />
   <line class="fil0 str0" x1="82.2942" y1="99.0521" x2="82.2942" y2= "106.3405" />
   <line class="fil0 str0" x1="89.2702" y1="99.0521" x2="82.2942" y2= "99.0521" />
   <line class="fil0 str0" x1="89.2702" y1="99.0521" x2="89.2702" y2= "80.8312" />
   <line class="fil0 str0" x1="89.2702" y1="80.8312" x2="99.9945" y2= "80.8312" />
   <path class="fil0 str0" d="M106.2417 87.0784c0,-1.6569 -0.6582,-3.2458 -1.8298,-4.4174 -1.1716,-1.1716 -2.7605,-1.8298 -4.4174,-1.8298"/>
   <line class="fil0 str0" x1="106.2417" y1="87.0784" x2="106.2417" y2= "152.6738" />
   <path class="fil0 str0" d="M99.9945 158.9209c3.4502,0 6.2472,-2.797 6.2472,-6.2471"/>
   <line class="fil0 str0" x1="99.9945" y1="158.9209" x2="89.2702" y2= "158.9209" />
   <line class="fil0 str0" x1="89.2702" y1="158.9209" x2="89.2702" y2= "140.7" />
   <line class="fil0 str0" x1="82.2942" y1="133.4116" x2="82.2942" y2= "140.7" />
   <line class="fil0 str0" x1="65.6351" y1="133.4116" x2="82.2942" y2= "133.4116" />
   <line class="fil0 str0" x1="65.6351" y1="140.7" x2="65.6351" y2= "133.4116" />
   <line class="fil0 str0" x1="65.6351" y1="140.7" x2="59.7002" y2= "140.7" />
   <line class="fil0 str0" x1="59.7002" y1="140.7" x2="59.7002" y2= "158.9209" />
   <line class="fil0 str0" x1="59.7002" y1="158.9209" x2="44.8111" y2= "158.9209" />
   <line class="fil0 str0" x1="44.8111" y1="158.9209" x2="44.8111" y2= "162.0445" />
   <line class="fil0 str0" x1="44.8111" y1="162.0445" x2="23.9872" y2= "162.0445" />
   <line class="fil0 str0" x1="23.9872" y1="162.0445" x2="23.9872" y2= "158.9209" />
   <path class="fil0 str0" d="M8.3692 152.6738c0,1.6569 0.6581,3.2458 1.8297,4.4175 1.1717,1.1716 2.7606,1.8297 4.4175,1.8297"/>
   <path class="fil0 str0" d="M8.3692 137.0479c0,-3.1893 -1.4617,-6.2027 -3.9664,-8.177"/>
   <path class="fil0 str0" d="M4.4028 110.8813c-2.7552,2.1718 -4.3631,5.4866 -4.3631,8.9948 0,3.5083 1.6079,6.8231 4.3631,8.9948"/>
   <path class="fil0 str0" d="M4.4028 110.8813c2.5047,-1.9743 3.9664,-4.9876 3.9664,-8.1769"/>
   <line class="fil0 str0" x1="8.3692" y1="102.7042" x2="8.3692" y2= "87.0784" />
   <path class="fil0 str0" d="M79.0925 119.8761c0,-2.8321 -2.2958,-5.1279 -5.1279,-5.1279 -2.8321,0 -5.1279,2.2958 -5.1279,5.1279 0,2.8321 2.2958,5.1279 5.1279,5.1279 2.8321,0 5.1279,-2.2958 5.1279,-5.1279z"/>
   <path class="fil0 str0" d="M102.8578 95.9286c0,-1.0063 -0.8158,-1.8221 -1.8221,-1.8221 -1.0063,0 -1.8221,0.8158 -1.8221,1.8221 0,1.0063 0.8158,1.8221 1.8221,1.8221 1.0063,0 1.8221,-0.8158 1.8221,-1.8221z"/>
   <path class="fil0 str0" d="M102.8578 143.8236c0,-1.0063 -0.8158,-1.8221 -1.8221,-1.8221 -1.0063,0 -1.8221,0.8158 -1.8221,1.8221 0,1.0063 0.8158,1.8221 1.8221,1.8221 1.0063,0 1.8221,-0.8158 1.8221,-1.8221z"/>
   <path class="fil0 str0" d="M15.3973 143.8236c0,-1.0063 -0.8158,-1.8221 -1.8221,-1.8221 -1.0063,0 -1.8221,0.8158 -1.8221,1.8221 0,1.0063 0.8158,1.8221 1.8221,1.8221 1.0063,0 1.8221,-0.8158 1.8221,-1.8221z"/>
   <path class="fil0 str0" d="M15.3973 95.9286c0,-1.0063 -0.8158,-1.8221 -1.8221,-1.8221 -1.0063,0 -1.8221,0.8158 -1.8221,1.8221 0,1.0063 0.8158,1.8221 1.8221,1.8221 1.0063,0 1.8221,-0.8158 1.8221,-1.8221z"/>
   <path class="fil0 str0" d="M21.9048 87.0784c-0.8285,0 -1.6229,0.3291 -2.2087,0.9149 -0.5858,0.5858 -0.9149,1.3803 -0.9149,2.2087"/>
   <line class="fil0 str0" x1="18.7812" y1="103.1273" x2="18.7812" y2= "90.202" />
   <path class="fil0 str0" d="M18.7812 103.1273c0,0.7307 0.2561,1.4383 0.7239,1.9996"/>
   <path class="fil0 str0" d="M23.0505 109.3814c0.5935,0.7122 1.4727,1.1239 2.3996,1.1239"/>
   <line class="fil0 str0" x1="51.0583" y1="90.202" x2="51.0583" y2= "110.5053" />
   <path class="fil0 str0" d="M51.0583 90.202c0,-0.8284 -0.3291,-1.6229 -0.9149,-2.2087 -0.5858,-0.5858 -1.3803,-0.9149 -2.2087,-0.9149"/>
   <line class="fil0 str0" x1="21.9048" y1="87.0784" x2="47.9347" y2= "87.0784" />
   <path class="fil0 str0" d="M25.4502 129.2468c-0.927,0 -1.8062,0.4118 -2.3996,1.124"/>
   <line class="fil0 str0" x1="19.5052" y1="134.6253" x2="23.0505" y2= "130.3708" />
   <path class="fil0 str0" d="M19.5052 134.6253c-0.4678,0.5614 -0.7239,1.269 -0.7239,1.9997"/>
   <line class="fil0 str0" x1="18.7812" y1="149.5502" x2="18.7812" y2= "136.625" />
   <path class="fil0 str0" d="M18.7812 149.5502c0,0.8285 0.3291,1.6229 0.9149,2.2087 0.5858,0.5859 1.3802,0.9149 2.2087,0.9149"/>
   <line class="fil0 str0" x1="47.9347" y1="152.6738" x2="21.9048" y2= "152.6738" />
   <path class="fil0 str0" d="M47.9347 152.6738c1.7251,0 3.1236,-1.3984 3.1236,-3.1236"/>
   <path class="fil0 str0" d="M51.0583 132.3704c0,-0.8284 -0.3291,-1.6229 -0.9149,-2.2087 -0.5858,-0.5858 -1.3803,-0.9149 -2.2087,-0.9149"/>
   <line class="fil0 str0" x1="47.9347" y1="129.2468" x2="25.4502" y2= "129.2468" />
   <path class="fil0 str0" d="M17.8441 119.8761c0,-3.5077 -2.8436,-6.3513 -6.3513,-6.3513 -3.5077,0 -6.3513,2.8436 -6.3513,6.3513 0,3.5077 2.8435,6.3513 6.3513,6.3513 3.5077,0 6.3513,-2.8435 6.3513,-6.3512z"/>
   <path class="fil0 str0" d="M101.0357 88.6402c0,-1.15 -0.9323,-2.0824 -2.0824,-2.0824 -1.1501,0 -2.0824,0.9323 -2.0824,2.0824 0,1.1501 0.9323,2.0824 2.0824,2.0824 1.15,0 2.0824,-0.9323 2.0824,-2.0824z"/>
   <path class="fil0 str0" d="M15.6576 88.6402c0,-1.15 -0.9323,-2.0824 -2.0824,-2.0824 -1.1501,0 -2.0824,0.9323 -2.0824,2.0824 0,1.1501 0.9323,2.0824 2.0824,2.0824 1.15,0 2.0824,-0.9323 2.0824,-2.0824z"/>
   <path class="fil0 str0" d="M15.6576 151.112c0,-1.15 -0.9323,-2.0824 -2.0824,-2.0824 -1.1501,0 -2.0824,0.9323 -2.0824,2.0824 0,1.1501 0.9323,2.0824 2.0824,2.0824 1.15,0 2.0824,-0.9323 2.0824,-2.0824z"/>
   <path class="fil0 str0" d="M101.0357 151.112c0,-1.15 -0.9323,-2.0824 -2.0824,-2.0824 -1.1501,0 -2.0824,0.9323 -2.0824,2.0824 0,1.1501 0.9323,2.0824 2.0824,2.0824 1.15,0 2.0824,-0.9323 2.0824,-2.0824z"/>
   <line class="fil0 str0" x1="23.0505" y1="109.3814" x2="19.5052" y2= "105.1269" />
   <line class="fil0 str0" x1="25.4502" y1="110.5053" x2="51.0583" y2= "110.5053" />
   <line class="fil0 str0" x1="65.6351" y1="99.0521" x2="59.7002" y2= "99.0521" />
   <line class="fil0 str0" x1="89.2702" y1="140.7" x2="82.2942" y2= "140.7" />
   <line class="fil0 str0" x1="51.0583" y1="132.3704" x2="51.0583" y2= "149.5502" />
   <line class="fil0 str0" x1="44.8111" y1="80.8312" x2="59.7002" y2= "80.8312" />
   <line class="fil0 str0" x1="23.9872" y1="158.9209" x2="14.6164" y2= "158.9209" />
   <line class="fil0 str0" x1="8.3692" y1="152.6738" x2="8.3692" y2= "137.0479" />
  </g>
  <g id="_1450843995536">
   <path class="fil0 str0" d="M26.8503 22.3007c-0.4763,-0.3221 -0.6014,-0.9695 -0.2792,-1.4458"/>
   <line class="fil0 str0" x1="26.8503" y1="22.3007" x2="28.1441" y2= "23.1755" />
   <path class="fil0 str0" d="M28.1441 23.1755c0.2288,0.1547 0.3867,0.3939 0.4391,0.665 0.0524,0.2711 -0.0051,0.552 -0.1598,0.7808"/>
   <line class="fil0 str0" x1="28.4233" y1="24.6213" x2="22.0077" y2= "34.1089" />
   <path class="fil0 str0" d="M22.0077 34.1089c-0.1546,0.2288 -0.3939,0.3867 -0.665,0.4391 -0.2711,0.0524 -0.5519,-0.0051 -0.7807,-0.1598"/>
   <line class="fil0 str0" x1="20.562" y1="34.3881" x2="19.2682" y2= "33.5133" />
   <path class="fil0 str0" d="M17.8225 33.7926c0.1546,-0.2288 0.3939,-0.3867 0.665,-0.4391 0.2711,-0.0524 0.5519,0.0051 0.7807,0.1598"/>
   <path class="fil0 str0" d="M2.1222 57.9675c0,-0.6237 0.1867,-1.233 0.5361,-1.7496"/>
   <line class="fil0 str0" x1="2.1222" y1="64.1667" x2="2.1222" y2= "57.9675" />
   <path class="fil0 str0" d="M10.4517 72.4962c-4.6002,0 -8.3296,-3.7293 -8.3296,-8.3295"/>
   <path class="fil0 str0" d="M55.1443 69.19c0.0503,0.8587 -0.2557,1.7001 -0.8459,2.3258 -0.5903,0.6258 -1.4123,0.9804 -2.2724,0.9804"/>
   <path class="fil0 str0" d="M55.1443 69.19c-0.3188,-5.4408 2.4028,-10.6103 7.0687,-13.427 4.6659,-2.8166 10.5081,-2.8166 15.174,0 4.6659,2.8165 7.3875,7.9861 7.0688,13.4269"/>
   <path class="fil0 str0" d="M87.574 72.4962c-0.8601,0 -1.6823,-0.3546 -2.2724,-0.9804 -0.5902,-0.6258 -0.8962,-1.4672 -0.8459,-2.3258"/>
   <path class="fil0 str0" d="M104.1594 64.1667c0,2.2092 -0.8775,4.3278 -2.4396,5.8899 -1.5621,1.5621 -3.6807,2.4396 -5.8899,2.4396"/>
   <line class="fil0 str0" x1="104.1594" y1="57.9675" x2="104.1594" y2= "64.1667" />
   <path class="fil0 str0" d="M103.6234 56.2178c0.3493,0.5166 0.536,1.1259 0.536,1.7496"/>
   <path class="fil0 str0" d="M62.3182 0.0397c2.0742,0 4.0131,1.0295 5.1751,2.7477"/>
   <path class="fil0 str0" d="M38.7884 2.7874c1.1619,-1.7182 3.1008,-2.7477 5.1751,-2.7477"/>
   <path class="fil0 str0" d="M85.8083 68.3314c0,-1.2219 0.9906,-2.2125 2.2125,-2.2125 1.2219,0 2.2125,0.9906 2.2125,2.2125 0,1.2219 -0.9906,2.2125 -2.2125,2.2125 -1.2219,0 -2.2125,-0.9906 -2.2125,-2.2125z"/>
   <path class="fil0 str0" d="M49.3665 68.3314c0,-1.2219 0.9906,-2.2125 2.2125,-2.2125 1.2219,0 2.2125,0.9906 2.2125,2.2125 0,1.2219 -0.9906,2.2125 -2.2125,2.2125 -1.2219,0 -2.2125,-0.9906 -2.2125,-2.2125z"/>
   <path class="fil0 str0" d="M56.6724 49.8021c1.5485,-1.4731 3.6038,-2.2946 5.7411,-2.2946"/>
   <line class="fil0 str0" x1="52.7402" y1="53.5426" x2="56.6724" y2= "49.8021" />
   <path class="fil0 str0" d="M52.7402 53.5426c-1.5485,1.473 -3.6038,2.2945 -5.7411,2.2945"/>
   <line class="fil0 str0" x1="28.5329" y1="55.8371" x2="46.9992" y2= "55.8371" />
   <path class="fil0 str0" d="M28.5329 55.8371c-3.0817,0 -5.9116,-1.7015 -7.3569,-4.4233 -1.4452,-2.7219 -1.2694,-6.0193 0.4568,-8.5721"/>
   <line class="fil0 str0" x1="22.3033" y1="41.8502" x2="21.6328" y2= "42.8416" />
   <path class="fil0 str0" d="M22.3033 41.8502c0.2084,-0.3082 0.5654,-0.4818 0.9365,-0.4553"/>
   <path class="fil0 str0" d="M26.0488 40.0288c-0.6251,0.9245 -1.696,1.4452 -2.809,1.366"/>
   <line class="fil0 str0" x1="34.8392" y1="27.0293" x2="26.0488" y2= "40.0288" />
   <path class="fil0 str0" d="M35.0607 23.9135c0.488,1.0036 0.4036,2.1913 -0.2216,3.1158"/>
   <path class="fil0 str0" d="M35.0607 23.9135c-0.1627,-0.3345 -0.1345,-0.7304 0.0738,-1.0385"/>
   <line class="fil0 str0" x1="43.0853" y1="11.117" x2="35.1346" y2= "22.875" />
   <path class="fil0 str0" d="M43.0853 11.117c1.162,-1.7182 3.1009,-2.7477 5.1752,-2.7477"/>
   <line class="fil0 str0" x1="58.0212" y1="8.3692" x2="48.2605" y2= "8.3692" />
   <path class="fil0 str0" d="M58.0212 8.3692c2.0742,0 4.0132,1.0295 5.1751,2.7477"/>
   <line class="fil0 str0" x1="90.6903" y1="51.776" x2="63.1963" y2= "11.117" />
   <path class="fil0 str0" d="M90.6903 51.776c0.5376,0.7951 0.5941,1.8214 0.1471,2.6706 -0.4471,0.8492 -1.325,1.3836 -2.2847,1.3905"/>
   <path class="fil0 str0" d="M88.5527 55.8371c-0.8576,-0.0061 -1.6573,-0.4344 -2.1377,-1.1449"/>
   <line class="fil0 str0" x1="84.0341" y1="51.1712" x2="86.415" y2= "54.6922" />
   <path class="fil0 str0" d="M77.134 47.5075c2.7656,0 5.3509,1.3727 6.9001,3.6637"/>
   <line class="fil0 str0" x1="62.4135" y1="47.5075" x2="77.134" y2= "47.5075" />
   <line class="fil0 str0" x1="19.3019" y1="65.6764" x2="19.3019" y2= "62.3446" />
   <line class="fil0 str0" x1="19.3019" y1="62.3446" x2="40.3341" y2= "62.3446" />
   <line class="fil0 str0" x1="40.3341" y1="62.3446" x2="40.3341" y2= "65.6764" />
   <line class="fil0 str0" x1="40.3341" y1="65.6764" x2="19.3019" y2= "65.6764" />
   <line class="fil0 str0" x1="39.3006" y1="11.3237" x2="37.0148" y2= "9.7782" />
   <line class="fil0 str0" x1="37.0148" y1="9.7782" x2="40.8934" y2= "4.0424" />
   <line class="fil0 str0" x1="40.8934" y1="4.0424" x2="43.179" y2= "5.5881" />
   <line class="fil0 str0" x1="43.179" y1="5.5881" x2="39.3006" y2= "11.3237" />
   <line class="fil0 str0" x1="43.9635" y1="0.0397" x2="62.3182" y2= "0.0397" />
   <line class="fil0 str0" x1="26.571" y1="20.8549" x2="38.7884" y2= "2.7874" />
   <line class="fil0 str0" x1="52.026" y1="72.4962" x2="10.4517" y2= "72.4962" />
   <line class="fil0 str0" x1="67.4933" y1="2.7874" x2="103.6234" y2= "56.2178" />
   <line class="fil0 str0" x1="95.8299" y1="72.4962" x2="87.574" y2= "72.4962" />
   <line class="fil0 str0" x1="2.6583" y1="56.2178" x2="17.8225" y2= "33.7926" />
  </g>
  <g id="_1450838563664">
   <path class="fil0 str0" d="M26.8503 217.4731c-0.4763,0.3221 -0.6014,0.9695 -0.2792,1.4458"/>
   <line class="fil0 str0" x1="26.8503" y1="217.4731" x2="28.1441" y2= "216.5982" />
   <path class="fil0 str0" d="M28.1441 216.5982c0.2288,-0.1547 0.3867,-0.3939 0.4391,-0.665 0.0524,-0.2711 -0.0051,-0.552 -0.1598,-0.7808"/>
   <line class="fil0 str0" x1="28.4233" y1="215.1524" x2="22.0077" y2= "205.6648" />
   <path class="fil0 str0" d="M22.0077 205.6648c-0.1546,-0.2288 -0.3939,-0.3867 -0.665,-0.4391 -0.2711,-0.0524 -0.5519,0.0051 -0.7807,0.1598"/>
   <line class="fil0 str0" x1="20.562" y1="205.3856" x2="19.2682" y2= "206.2604" />
   <path class="fil0 str0" d="M17.8225 205.9812c0.1546,0.2288 0.3939,0.3867 0.665,0.4391 0.2711,0.0524 0.5519,-0.0051 0.7807,-0.1598"/>
   <path class="fil0 str0" d="M2.1222 181.8062c0,0.6237 0.1867,1.233 0.5361,1.7496"/>
   <line class="fil0 str0" x1="2.1222" y1="175.6071" x2="2.1222" y2= "181.8062" />
   <path class="fil0 str0" d="M10.4517 167.2775c-4.6002,0 -8.3296,3.7293 -8.3296,8.3295"/>
   <path class="fil0 str0" d="M55.1443 170.5837c0.0503,-0.8587 -0.2557,-1.7001 -0.8459,-2.3258 -0.5903,-0.6258 -1.4123,-0.9804 -2.2724,-0.9804"/>
   <path class="fil0 str0" d="M55.1443 170.5837c-0.3188,5.4408 2.4028,10.6103 7.0687,13.427 4.6659,2.8166 10.5081,2.8166 15.174,0 4.6659,-2.8165 7.3875,-7.9861 7.0688,-13.4269"/>
   <path class="fil0 str0" d="M87.574 167.2775c-0.8601,0 -1.6823,0.3546 -2.2724,0.9804 -0.5902,0.6258 -0.8962,1.4672 -0.8459,2.3258"/>
   <path class="fil0 str0" d="M104.1594 175.6071c0,-2.2092 -0.8775,-4.3278 -2.4396,-5.8899 -1.5621,-1.5621 -3.6807,-2.4396 -5.8899,-2.4396"/>
   <line class="fil0 str0" x1="104.1594" y1="181.8062" x2="104.1594" y2= "175.6071" />
   <path class="fil0 str0" d="M103.6234 183.5559c0.3493,-0.5166 0.536,-1.1259 0.536,-1.7496"/>
   <path class="fil0 str0" d="M62.3182 239.734c2.0742,0 4.0131,-1.0295 5.1751,-2.7477"/>
   <path class="fil0 str0" d="M38.7884 236.9863c1.1619,1.7182 3.1008,2.7477 5.1751,2.7477"/>
   <path class="fil0 str0" d="M85.8083 171.4423c0,1.2219 0.9906,2.2125 2.2125,2.2125 1.2219,0 2.2125,-0.9906 2.2125,-2.2125 0,-1.2219 -0.9906,-2.2125 -2.2125,-2.2125 -1.2219,0 -2.2125,0.9906 -2.2125,2.2125z"/>
   <path class="fil0 str0" d="M49.3665 171.4423c0,1.2219 0.9906,2.2125 2.2125,2.2125 1.2219,0 2.2125,-0.9906 2.2125,-2.2125 0,-1.2219 -0.9906,-2.2125 -2.2125,-2.2125 -1.2219,0 -2.2125,0.9906 -2.2125,2.2125z"/>
   <path class="fil0 str0" d="M56.6724 189.9716c1.5485,1.4731 3.6038,2.2946 5.7411,2.2946"/>
   <line class="fil0 str0" x1="52.7402" y1="186.2311" x2="56.6724" y2= "189.9716" />
   <path class="fil0 str0" d="M52.7402 186.2311c-1.5485,-1.473 -3.6038,-2.2945 -5.7411,-2.2945"/>
   <line class="fil0 str0" x1="28.5329" y1="183.9366" x2="46.9992" y2= "183.9366" />
   <path class="fil0 str0" d="M28.5329 183.9366c-3.0817,0 -5.9116,1.7015 -7.3569,4.4233 -1.4452,2.7219 -1.2694,6.0193 0.4568,8.5721"/>
   <line class="fil0 str0" x1="22.3033" y1="197.9235" x2="21.6328" y2= "196.9321" />
   <path class="fil0 str0" d="M22.3033 197.9235c0.2084,0.3082 0.5654,0.4818 0.9365,0.4553"/>
   <path class="fil0 str0" d="M26.0488 199.7449c-0.6251,-0.9245 -1.696,-1.4452 -2.809,-1.366"/>
   <line class="fil0 str0" x1="34.8392" y1="212.7445" x2="26.0488" y2= "199.7449" />
   <path class="fil0 str0" d="M35.0607 215.8602c0.488,-1.0036 0.4036,-2.1913 -0.2216,-3.1158"/>
   <path class="fil0 str0" d="M35.0607 215.8602c-0.1627,0.3345 -0.1345,0.7304 0.0738,1.0385"/>
   <line class="fil0 str0" x1="43.0853" y1="228.6568" x2="35.1346" y2= "216.8987" />
   <path class="fil0 str0" d="M43.0853 228.6568c1.162,1.7182 3.1009,2.7477 5.1752,2.7477"/>
   <line class="fil0 str0" x1="58.0212" y1="231.4045" x2="48.2605" y2= "231.4045" />
   <path class="fil0 str0" d="M58.0212 231.4045c2.0742,0 4.0132,-1.0295 5.1751,-2.7477"/>
   <line class="fil0 str0" x1="90.6903" y1="187.9977" x2="63.1963" y2= "228.6568" />
   <path class="fil0 str0" d="M90.6903 187.9977c0.5376,-0.7951 0.5941,-1.8214 0.1471,-2.6706 -0.4471,-0.8492 -1.325,-1.3836 -2.2847,-1.3905"/>
   <path class="fil0 str0" d="M88.5527 183.9366c-0.8576,0.0061 -1.6573,0.4344 -2.1377,1.1449"/>
   <line class="fil0 str0" x1="84.0341" y1="188.6025" x2="86.415" y2= "185.0815" />
   <path class="fil0 str0" d="M77.134 192.2662c2.7656,0 5.3509,-1.3727 6.9001,-3.6637"/>
   <line class="fil0 str0" x1="62.4135" y1="192.2662" x2="77.134" y2= "192.2662" />
   <line class="fil0 str0" x1="19.3019" y1="174.0973" x2="19.3019" y2= "177.4292" />
   <line class="fil0 str0" x1="19.3019" y1="177.4292" x2="40.3341" y2= "177.4292" />
   <line class="fil0 str0" x1="40.3341" y1="177.4292" x2="40.3341" y2= "174.0973" />
   <line class="fil0 str0" x1="40.3341" y1="174.0973" x2="19.3019" y2= "174.0973" />
   <line class="fil0 str0" x1="39.3006" y1="228.45" x2="37.0148" y2= "229.9955" />
   <line class="fil0 str0" x1="37.0148" y1="229.9955" x2="40.8934" y2= "235.7313" />
   <line class="fil0 str0" x1="40.8934" y1="235.7313" x2="43.179" y2= "234.1856" />
   <line class="fil0 str0" x1="43.179" y1="234.1856" x2="39.3006" y2= "228.45" />
   <line class="fil0 str0" x1="43.9635" y1="239.734" x2="62.3182" y2= "239.734" />
   <line class="fil0 str0" x1="26.571" y1="218.9189" x2="38.7884" y2= "236.9863" />
   <line class="fil0 str0" x1="52.026" y1="167.2775" x2="10.4517" y2= "167.2775" />
   <line class="fil0 str0" x1="67.4933" y1="236.9863" x2="103.6234" y2= "183.5559" />
   <line class="fil0 str0" x1="95.8299" y1="167.2775" x2="87.574" y2= "167.2775" />
   <line class="fil0 str0" x1="2.6583" y1="183.5559" x2="17.8225" y2= "205.9812" />
  </g>
 </g>
</svg>
