<?xml version="1.0" encoding="UTF-8"?>
<!DOCTYPE svg PUBLIC "-//W3C//DTD SVG 1.1//EN" "http://www.w3.org/Graphics/SVG/1.1/DTD/svg11.dtd">
<!-- Creator: CorelDRAW 2018 (64 Bit Versión de evaluación) -->
<svg xmlns="http://www.w3.org/2000/svg" xml:space="preserve" width="66.05mm" height="66.05mm" version="1.1" style="shape-rendering:geometricPrecision; text-rendering:geometricPrecision; image-rendering:optimizeQuality; fill-rule:evenodd; clip-rule:evenodd"
viewBox="0 0 494108 494108"
 xmlns:xlink="http://www.w3.org/1999/xlink">
 <defs>
  <style type="text/css">
   <![CDATA[
    .str0 {stroke:black;stroke-width:1865;stroke-linejoin:bevel;stroke-miterlimit:22.9256}
    .fil0 {fill:none}
   ]]>
  </style>
 </defs>
 <g id="_0">
  <metadata id="CorelCorpID_0Corel-Layer"/>
  <path class="fil0 str0" d="M321636 112806c0,-41191 -33392,-74582 -74582,-74582 -41191,0 -74582,33391 -74582,74582 0,41190 33391,74582 74582,74582 41191,0 74582,-33391 74583,-74582z"/>
  <path class="fil0 str0" d="M321636 381302c0,-41191 -33392,-74582 -74582,-74582 -41191,0 -74582,33391 -74582,74582 0,41190 33391,74582 74582,74582 41191,0 74582,-33391 74583,-74582z"/>
  <path class="fil0 str0" d="M455885 247054c0,-41191 -33392,-74582 -74582,-74582 -41191,0 -74582,33391 -74582,74582 0,41190 33391,74582 74582,74582 41191,0 74582,-33391 74583,-74582z"/>
  <path class="fil0 str0" d="M187388 247054c0,-41191 -33392,-74582 -74582,-74582 -41191,0 -74582,33391 -74582,74582 0,41190 33391,74582 74582,74582 41191,0 74582,-33391 74583,-74582z"/>
  <path class="fil0 str0" d="M493176 247054c0,-135929 -110192,-246122 -246122,-246122 -135929,0 -246122,110192 -246122,246121 -1,135929 110192,246122 246120,246123 135929,1 246123,-110192 246123,-246120z"/>
  <line class="fil0 str0" x1="261588" y1="235494" x2="232519" y2= "235494" />
  <line class="fil0 str0" x1="232519" y1="258614" x2="261588" y2= "258614" />
  <path class="fil0 str0" d="M232519 235494c-5382,6767 -5382,16354 0,23121"/>
  <path class="fil0 str0" d="M261588 258614c5383,-6767 5383,-16354 0,-23121"/>
 </g>
</svg>
