<?xml version="1.0" encoding="UTF-8"?>
<!DOCTYPE svg PUBLIC "-//W3C//DTD SVG 1.1//EN" "http://www.w3.org/Graphics/SVG/1.1/DTD/svg11.dtd">
<!-- Creator: CorelDRAW 2018 (64 Bit Versión de evaluación) -->
<svg xmlns="http://www.w3.org/2000/svg" xml:space="preserve" width="102.076mm" height="81.0762mm" version="1.1" style="shape-rendering:geometricPrecision; text-rendering:geometricPrecision; image-rendering:optimizeQuality; fill-rule:evenodd; clip-rule:evenodd"
viewBox="0 0 62.4392 49.5937"
 xmlns:xlink="http://www.w3.org/1999/xlink">
 <defs>
  <style type="text/css">
   <![CDATA[
    .str0 {stroke:black;stroke-width:0.0466;stroke-linecap:round;stroke-linejoin:round;stroke-miterlimit:22.9256}
    .fil0 {fill:none}
   ]]>
  </style>
 </defs>
 <g id="_0">
  <metadata id="CorelCorpID_0Corel-Layer"/>
  <path class="fil0 str0" d="M8.587 1.8584c-0.9734,0 -1.9069,0.3867 -2.5952,1.075 -0.6883,0.6883 -1.0749,1.6218 -1.0749,2.5952"/>
  <line class="fil0 str0" x1="8.587" y1="1.8584" x2="14.0922" y2= "1.8584" />
  <line class="fil0 str0" x1="14.0922" y1="1.8584" x2="14.0922" y2= "0.0233" />
  <line class="fil0 str0" x1="14.0922" y1="0.0233" x2="26.3261" y2= "0.0233" />
  <line class="fil0 str0" x1="26.3261" y1="0.0233" x2="26.3261" y2= "1.8584" />
  <line class="fil0 str0" x1="35.0732" y1="1.8584" x2="35.0732" y2= "12.563" />
  <line class="fil0 str0" x1="38.5599" y1="16.8448" x2="38.5599" y2= "12.563" />
  <line class="fil0 str0" x1="48.347" y1="16.8448" x2="38.5599" y2= "16.8448" />
  <line class="fil0 str0" x1="48.347" y1="12.563" x2="48.347" y2= "16.8448" />
  <line class="fil0 str0" x1="52.4453" y1="12.563" x2="48.347" y2= "12.563" />
  <line class="fil0 str0" x1="52.4453" y1="12.563" x2="52.4453" y2= "1.8584" />
  <line class="fil0 str0" x1="52.4453" y1="1.8584" x2="58.7457" y2= "1.8584" />
  <path class="fil0 str0" d="M62.4159 5.5285c0,-0.9734 -0.3867,-1.9069 -1.075,-2.5952 -0.6883,-0.6883 -1.6218,-1.075 -2.5952,-1.075"/>
  <line class="fil0 str0" x1="62.4159" y1="5.5285" x2="62.4159" y2= "44.0651" />
  <path class="fil0 str0" d="M58.7457 47.7353c2.027,0 3.6702,-1.6432 3.6702,-3.6701"/>
  <line class="fil0 str0" x1="58.7457" y1="47.7353" x2="52.4453" y2= "47.7353" />
  <line class="fil0 str0" x1="52.4453" y1="47.7353" x2="52.4453" y2= "37.0307" />
  <line class="fil0 str0" x1="48.347" y1="32.7488" x2="48.347" y2= "37.0307" />
  <line class="fil0 str0" x1="38.5599" y1="32.7488" x2="48.347" y2= "32.7488" />
  <line class="fil0 str0" x1="38.5599" y1="37.0307" x2="38.5599" y2= "32.7488" />
  <line class="fil0 str0" x1="38.5599" y1="37.0307" x2="35.0732" y2= "37.0307" />
  <line class="fil0 str0" x1="35.0732" y1="37.0307" x2="35.0732" y2= "47.7353" />
  <line class="fil0 str0" x1="35.0732" y1="47.7353" x2="26.3261" y2= "47.7353" />
  <line class="fil0 str0" x1="26.3261" y1="47.7353" x2="26.3261" y2= "49.5703" />
  <line class="fil0 str0" x1="26.3261" y1="49.5703" x2="14.0922" y2= "49.5703" />
  <line class="fil0 str0" x1="14.0922" y1="49.5703" x2="14.0922" y2= "47.7353" />
  <path class="fil0 str0" d="M4.9168 44.0651c0,0.9734 0.3867,1.9069 1.0749,2.5952 0.6883,0.6883 1.6218,1.0749 2.5952,1.0749"/>
  <path class="fil0 str0" d="M4.9168 34.8851c0,-1.8737 -0.8588,-3.644 -2.3302,-4.8039"/>
  <path class="fil0 str0" d="M2.5866 19.5125c-1.6187,1.2759 -2.5633,3.2233 -2.5633,5.2843 0,2.0611 0.9446,4.0085 2.5633,5.2843"/>
  <path class="fil0 str0" d="M2.5866 19.5125c1.4715,-1.1599 2.3302,-2.9302 2.3302,-4.8039"/>
  <line class="fil0 str0" x1="4.9168" y1="14.7086" x2="4.9168" y2= "5.5285" />
  <path class="fil0 str0" d="M46.466 24.7968c0,-1.6638 -1.3488,-3.0126 -3.0126,-3.0126 -1.6638,0 -3.0126,1.3488 -3.0126,3.0126 0,1.6638 1.3488,3.0126 3.0126,3.0126 1.6638,0 3.0126,-1.3488 3.0126,-3.0126z"/>
  <path class="fil0 str0" d="M60.4279 10.7279c0,-0.5912 -0.4793,-1.0705 -1.0705,-1.0705 -0.5912,0 -1.0705,0.4793 -1.0705,1.0705 0,0.5912 0.4793,1.0705 1.0705,1.0705 0.5912,0 1.0705,-0.4793 1.0705,-1.0705z"/>
  <path class="fil0 str0" d="M60.4279 38.8657c0,-0.5912 -0.4793,-1.0705 -1.0705,-1.0705 -0.5912,0 -1.0705,0.4793 -1.0705,1.0705 0,0.5912 0.4793,1.0705 1.0705,1.0705 0.5912,0 1.0705,-0.4793 1.0705,-1.0705z"/>
  <path class="fil0 str0" d="M9.0458 38.8657c0,-0.5912 -0.4793,-1.0705 -1.0705,-1.0705 -0.5912,0 -1.0705,0.4793 -1.0705,1.0705 0,0.5912 0.4793,1.0705 1.0705,1.0705 0.5912,0 1.0705,-0.4793 1.0705,-1.0705z"/>
  <path class="fil0 str0" d="M9.0458 10.7279c0,-0.5912 -0.4793,-1.0705 -1.0705,-1.0705 -0.5912,0 -1.0705,0.4793 -1.0705,1.0705 0,0.5912 0.4793,1.0705 1.0705,1.0705 0.5912,0 1.0705,-0.4793 1.0705,-1.0705z"/>
  <path class="fil0 str0" d="M12.8688 5.5285c-0.4867,0 -0.9534,0.1934 -1.2976,0.5375 -0.3441,0.3441 -0.5375,0.8109 -0.5375,1.2976"/>
  <line class="fil0 str0" x1="11.0338" y1="14.9571" x2="11.0338" y2= "7.3636" />
  <path class="fil0 str0" d="M11.0338 14.9571c0,0.4293 0.1505,0.845 0.4253,1.1748"/>
  <path class="fil0 str0" d="M13.5419 18.6313c0.3487,0.4184 0.8652,0.6603 1.4098,0.6603"/>
  <line class="fil0 str0" x1="29.9962" y1="7.3636" x2="29.9962" y2= "19.2916" />
  <path class="fil0 str0" d="M29.9962 7.3636c0,-0.4867 -0.1934,-0.9534 -0.5375,-1.2976 -0.3441,-0.3441 -0.8109,-0.5375 -1.2976,-0.5375"/>
  <line class="fil0 str0" x1="12.8688" y1="5.5285" x2="28.1611" y2= "5.5285" />
  <path class="fil0 str0" d="M14.9517 30.3021c-0.5446,0 -1.0611,0.2419 -1.4098,0.6603"/>
  <line class="fil0 str0" x1="11.4591" y1="33.4618" x2="13.5419" y2= "30.9624" />
  <path class="fil0 str0" d="M11.4591 33.4618c-0.2748,0.3298 -0.4253,0.7455 -0.4253,1.1748"/>
  <line class="fil0 str0" x1="11.0338" y1="42.23" x2="11.0338" y2= "34.6366" />
  <path class="fil0 str0" d="M11.0338 42.23c0,0.4867 0.1934,0.9534 0.5375,1.2976 0.3441,0.3442 0.8109,0.5375 1.2976,0.5375"/>
  <line class="fil0 str0" x1="28.1611" y1="44.0651" x2="12.8688" y2= "44.0651" />
  <path class="fil0 str0" d="M28.1611 44.0651c1.0135,0 1.8351,-0.8216 1.8351,-1.8351"/>
  <path class="fil0 str0" d="M29.9962 32.1371c0,-0.4867 -0.1934,-0.9534 -0.5375,-1.2976 -0.3441,-0.3441 -0.8109,-0.5375 -1.2976,-0.5375"/>
  <line class="fil0 str0" x1="28.1611" y1="30.3021" x2="14.9517" y2= "30.3021" />
  <path class="fil0 str0" d="M10.4832 24.7968c0,-2.0607 -1.6706,-3.7313 -3.7313,-3.7313 -2.0607,0 -3.7313,1.6706 -3.7313,3.7313 0,2.0607 1.6705,3.7313 3.7313,3.7313 2.0607,0 3.7313,-1.6705 3.7313,-3.7313z"/>
  <path class="fil0 str0" d="M59.3574 6.4461c0,-0.6756 -0.5477,-1.2234 -1.2234,-1.2234 -0.6757,0 -1.2234,0.5477 -1.2234,1.2234 0,0.6757 0.5477,1.2234 1.2234,1.2234 0.6756,0 1.2234,-0.5477 1.2234,-1.2234z"/>
  <path class="fil0 str0" d="M9.1987 6.4461c0,-0.6756 -0.5477,-1.2234 -1.2234,-1.2234 -0.6757,0 -1.2234,0.5477 -1.2234,1.2234 0,0.6757 0.5477,1.2234 1.2234,1.2234 0.6756,0 1.2234,-0.5477 1.2234,-1.2234z"/>
  <path class="fil0 str0" d="M9.1987 43.1476c0,-0.6756 -0.5477,-1.2234 -1.2234,-1.2234 -0.6757,0 -1.2234,0.5477 -1.2234,1.2234 0,0.6757 0.5477,1.2234 1.2234,1.2234 0.6756,0 1.2234,-0.5477 1.2234,-1.2234z"/>
  <path class="fil0 str0" d="M59.3574 43.1476c0,-0.6756 -0.5477,-1.2234 -1.2234,-1.2234 -0.6757,0 -1.2234,0.5477 -1.2234,1.2234 0,0.6757 0.5477,1.2234 1.2234,1.2234 0.6756,0 1.2234,-0.5477 1.2234,-1.2234z"/>
  <line class="fil0 str0" x1="13.5419" y1="18.6313" x2="11.4591" y2= "16.1318" />
  <line class="fil0 str0" x1="14.9517" y1="19.2916" x2="29.9962" y2= "19.2916" />
  <line class="fil0 str0" x1="38.5599" y1="12.563" x2="35.0732" y2= "12.563" />
  <line class="fil0 str0" x1="52.4453" y1="37.0307" x2="48.347" y2= "37.0307" />
  <line class="fil0 str0" x1="29.9962" y1="32.1371" x2="29.9962" y2= "42.23" />
  <line class="fil0 str0" x1="26.3261" y1="1.8584" x2="35.0732" y2= "1.8584" />
  <line class="fil0 str0" x1="14.0922" y1="47.7353" x2="8.587" y2= "47.7353" />
  <line class="fil0 str0" x1="4.9168" y1="44.0651" x2="4.9168" y2= "34.8851" />
 </g>
</svg>
